<?xml version="1.0" encoding="UTF-8" standalone="no"?>
<svg width="100%" height="100%" viewBox="0 0 400 400" version="1.1" xmlns="http://www.w3.org/2000/svg">
  <defs>
    <!-- Background Gradient -->
    <linearGradient id="bg-grad" x1="0%" y1="0%" x2="100%" y2="100%">
      <stop offset="0%" stop-color="#1E88E5" />
      <stop offset="100%" stop-color="#0D47A1" />
    </linearGradient>
    
    <!-- White Card Shadow -->
    <filter id="shadow" x="-10%" y="-10%" width="120%" height="120%">
      <feDropShadow dx="0" dy="8" stdDeviation="6" flood-color="#000000" flood-opacity="0.12" />
    </filter>
  </defs>

  <!-- Card Base Background -->
  <rect width="400" height="400" rx="32" fill="url(#bg-grad)" />

  <!-- Modern Wave Overlay -->
  <path d="M 0,320 Q 100,280 200,320 T 400,320 L 400,400 L 0,400 Z" fill="#ffffff" fill-opacity="0.04" />
  <path d="M 0,350 Q 100,320 200,350 T 400,350 L 400,400 L 0,400 Z" fill="#ffffff" fill-opacity="0.04" />

  <!-- Circular Glow behind Icon -->
  <circle cx="200" cy="95" r="55" fill="#ffffff" fill-opacity="0.15" />

  <!-- Main White Circle containing Icon -->
  <circle cx="200" cy="90" r="42" fill="#ffffff" filter="url(#shadow)" />
  
  <!-- Icon Wrapper (colors mapped to category gradient) -->
  <g color="#1E88E5">
    
    <!-- Medical Cross -->
    <g transform="translate(160, 50)">
      <circle cx="40" cy="40" r="38" fill="none" stroke="currentColor" stroke-width="4" />
      <path d="M 40,20 v 40 M 20,40 h 40" stroke="currentColor" stroke-width="12" stroke-linecap="round" />
    </g>
  
  </g>

  <!-- Brand Label (Header) -->
  <text x="200" y="170" font-family="'Inter', -apple-system, BlinkMacSystemFont, sans-serif" font-size="12" font-weight="900" fill="#ffffff" fill-opacity="0.75" letter-spacing="3" text-anchor="middle">GENERAL OTC REMEDY</text>

  <!-- Product Name (wrapped dynamically) -->
  <text x="200" y="240" font-family="'Inter', -apple-system, BlinkMacSystemFont, sans-serif" font-size="22" font-weight="800" fill="#ffffff" text-anchor="middle">Itch Guard Cream</text>

  <!-- Dosage Strength / Pack Size -->
  <text x="200" y="315" font-family="'Inter', -apple-system, BlinkMacSystemFont, sans-serif" font-size="14" font-weight="600" fill="#ffffff" fill-opacity="0.9" text-anchor="middle">15g</text>

  <!-- Manufacturer Line -->
  <text x="200" y="340" font-family="'Inter', -apple-system, BlinkMacSystemFont, sans-serif" font-size="11" font-weight="500" fill="#ffffff" fill-opacity="0.6" text-anchor="middle">Paras</text>

  <!-- Bottom Badging -->
  <g transform="translate(130, 360)">
    <circle cx="10" cy="10" r="8" fill="#ffffff" fill-opacity="0.2" />
    <path d="M6,10 l3,3 l5,-6" fill="none" stroke="#ffffff" stroke-width="2" stroke-linecap="round" />
    <text x="24" y="14" font-family="'Inter', -apple-system, BlinkMacSystemFont, sans-serif" font-size="10" font-weight="700" fill="#ffffff" fill-opacity="0.8" letter-spacing="1">MEDIQUICK VERIFIED</text>
  </g>
</svg>
